<?xml version="1.0" encoding="UTF-8" standalone="no"?>
<!DOCTYPE svg PUBLIC "-//W3C//DTD SVG 1.1//EN" "http://www.w3.org/Graphics/SVG/1.1/DTD/svg11.dtd">
<svg xmlns="http://www.w3.org/2000/svg" version="1.1" viewBox="0.00 0.00 1024.00 1024.00">
<g stroke-width="2.00" fill="none" stroke-linecap="butt">
<path stroke="#7e97a4" vector-effect="non-scaling-stroke" d="
  M 6.45 1024.00
  Q 7.11 1019.08 6.62 1013.94
  Q 6.57 1013.32 5.97 1013.49
  Q 3.32 1014.21 0.70 1013.57
  Q 0.32 1013.48 0.25 1013.87
  Q 0.19 1014.24 0.00 1014.19"
/>
<path stroke="#7c7e80" vector-effect="non-scaling-stroke" d="
  M 311.39 464.83
  Q 302.88 470.53 296.10 477.13
  A 0.54 0.54 0.0 0 0 296.70 478.00
  C 316.67 468.66 337.14 460.23 356.91 450.54
  Q 389.52 434.55 423.03 420.57
  C 437.25 414.64 452.09 409.86 466.81 404.98"
/>
<path stroke="#7e97a4" vector-effect="non-scaling-stroke" d="
  M 466.81 404.98
  L 487.51 399.20"
/>
<path stroke="#7c7e80" vector-effect="non-scaling-stroke" d="
  M 487.51 399.20
  L 539.37 388.93"
/>
<path stroke="#7e97a4" vector-effect="non-scaling-stroke" d="
  M 539.37 388.93
  L 543.72 388.87
  Q 544.44 388.86 543.74 389.04
  Q 514.02 396.32 485.97 412.99
  C 439.01 440.91 393.47 469.73 338.50 479.26
  C 329.46 480.82 316.09 483.50 304.06 485.73
  C 283.28 489.59 265.52 496.14 245.10 504.22
  C 241.81 505.52 240.43 507.45 239.19 510.54
  Q 238.99 511.04 239.52 511.14
  Q 244.94 512.23 250.52 511.60"
/>
<path stroke="#7c7e80" vector-effect="non-scaling-stroke" d="
  M 250.52 511.60
  Q 292.13 507.68 333.40 499.20"
/>
<path stroke="#7e97a4" vector-effect="non-scaling-stroke" d="
  M 333.40 499.20
  Q 345.00 497.82 356.70 495.32
  A 0.29 0.28 -75.4 0 1 356.97 495.79
  C 350.86 502.82 345.27 511.30 339.52 517.29
  C 327.87 529.42 297.55 556.74 279.47 543.56
  A 0.47 0.47 0.0 0 1 279.70 542.72
  Q 285.99 542.10 290.46 539.44"
/>
<path stroke="#7c7e80" vector-effect="non-scaling-stroke" d="
  M 290.46 539.44
  C 299.68 536.30 304.03 529.00 311.23 519.71
  Q 311.63 519.18 310.98 519.29
  L 304.93 520.24"
/>
<path stroke="#7e97a4" vector-effect="non-scaling-stroke" d="
  M 304.93 520.24
  Q 269.72 525.53 233.99 527.15
  C 230.23 527.32 225.02 528.07 222.28 524.92"
/>
<path stroke="#7c7e80" vector-effect="non-scaling-stroke" d="
  M 222.28 524.92
  C 219.28 519.12 225.58 508.61 229.58 503.08"
/>
<path stroke="#7e97a4" vector-effect="non-scaling-stroke" d="
  M 229.58 503.08
  L 237.37 494.79"
/>
<path stroke="#7c7e80" vector-effect="non-scaling-stroke" d="
  M 237.37 494.79
  Q 242.95 489.72 250.33 485.60
  Q 284.02 466.82 313.33 451.98
  Q 315.75 450.76 318.53 448.74
  A 0.67 0.67 0.0 0 0 317.95 447.55
  L 301.86 452.26"
/>
<path stroke="#7e97a4" vector-effect="non-scaling-stroke" d="
  M 301.86 452.26
  Q 295.70 454.54 289.22 457.15
  C 263.63 467.47 234.80 476.41 212.32 495.02
  C 209.78 497.13 209.05 498.81 209.04 502.00
  C 209.01 515.69 206.81 526.91 216.13 535.16
  Q 216.47 535.46 216.35 535.90
  C 214.19 543.61 204.26 574.49 207.99 580.48
  Q 216.82 594.62 232.99 595.08
  Q 273.28 596.22 335.71 595.95"
/>
<path stroke="#7c7e80" vector-effect="non-scaling-stroke" d="
  M 335.71 595.95
  L 342.82 596.08
  Q 343.32 596.09 343.44 595.60
  C 348.96 573.83 351.59 552.95 362.33 531.64"
/>
<path stroke="#7e97a4" vector-effect="non-scaling-stroke" d="
  M 362.33 531.64
  Q 370.23 517.99 382.28 507.71"
/>
<path stroke="#7c7e80" vector-effect="non-scaling-stroke" d="
  M 382.28 507.71
  Q 405.90 489.06 435.26 491.51"
/>
<path stroke="#7e97a4" vector-effect="non-scaling-stroke" d="
  M 435.26 491.51
  C 490.12 496.60 502.51 550.76 510.07 594.70
  A 1.00 0.99 85.2 0 0 511.05 595.53
  L 632.25 595.93"
/>
<path stroke="#7c7e80" vector-effect="non-scaling-stroke" d="
  M 632.25 595.93
  L 649.81 595.94
  Q 650.33 595.94 650.42 595.42
  C 654.27 572.30 655.10 546.66 668.27 525.74
  Q 680.97 505.58 704.56 496.95"
/>
<path stroke="#7e97a4" vector-effect="non-scaling-stroke" d="
  M 704.56 496.95
  C 720.79 490.12 741.57 491.82 757.18 498.41
  C 777.30 506.91 784.93 525.53 788.87 545.47
  Q 790.97 556.13 790.58 567.44
  A 0.31 0.31 0.0 0 0 791.19 567.52
  L 795.59 549.62"
/>
<path stroke="#7c7e80" vector-effect="non-scaling-stroke" d="
  M 795.59 549.62
  C 799.05 537.04 800.59 522.93 798.10 510.16
  C 794.69 492.68 783.62 475.41 771.46 461.99"
/>
<path stroke="#7e97a4" vector-effect="non-scaling-stroke" d="
  M 771.46 461.99
  C 748.27 434.87 713.38 415.67 680.18 403.99
  C 667.33 399.47 651.10 395.18 636.66 390.74
  Q 636.18 390.60 636.01 390.13
  L 635.67 389.22"
/>
<path stroke="#7c7e80" vector-effect="non-scaling-stroke" d="
  M 635.67 389.22
  C 637.07 381.60 643.27 381.46 649.06 379.85
  Q 650.12 379.56 649.04 379.32
  L 640.14 377.42"
/>
<path stroke="#7e97a4" vector-effect="non-scaling-stroke" d="
  M 640.14 377.42
  Q 623.08 373.60 605.25 373.03
  C 561.40 371.61 516.25 376.56 475.00 389.98
  Q 444.84 399.80 409.61 413.64
  C 383.13 424.05 357.36 437.17 332.69 451.31
  C 325.66 455.34 318.45 460.31 311.39 464.83"
/>
<path stroke="#021c2a" vector-effect="non-scaling-stroke" d="
  M 640.14 377.42
  Q 639.22 378.46 642.55 379.37
  Q 643.42 379.61 642.57 379.89
  Q 634.82 382.49 635.67 389.22"
/>
<path stroke="#021c2a" vector-effect="non-scaling-stroke" d="
  M 771.46 461.99
  Q 771.06 461.93 770.82 462.32
  Q 770.52 462.80 770.90 463.23
  Q 783.64 477.72 789.42 489.82
  C 794.90 501.30 799.46 516.10 797.89 528.43
  Q 796.57 538.87 795.59 549.62"
/>
<path stroke="#021c2a" vector-effect="non-scaling-stroke" d="
  M 704.56 496.95
  Q 704.42 496.72 704.56 496.52
  A 0.41 0.41 0.0 0 0 704.09 495.90
  Q 679.99 504.56 667.00 526.03
  C 666.44 526.95 662.87 534.47 662.82 534.48
  Q 662.44 534.58 662.29 534.94
  C 654.12 554.24 652.63 573.48 649.78 593.46
  Q 649.51 595.33 647.63 595.29
  C 646.19 595.26 632.05 594.35 632.25 595.93"
/>
<path stroke="#021c2a" vector-effect="non-scaling-stroke" d="
  M 435.26 491.51
  Q 435.28 491.31 435.19 491.13
  Q 434.98 490.66 434.47 490.61
  C 422.67 489.55 414.14 491.07 404.92 493.88
  Q 391.72 497.91 382.28 507.71"
/>
<path stroke="#021c2a" vector-effect="non-scaling-stroke" d="
  M 362.33 531.64
  Q 359.21 534.53 357.72 538.28
  C 350.84 555.64 347.05 575.83 342.60 594.54
  Q 342.48 595.06 341.95 595.04
  Q 338.54 594.90 335.71 595.95"
/>
<path stroke="#021c2a" vector-effect="non-scaling-stroke" d="
  M 301.86 452.26
  Q 304.26 453.18 307.20 451.58
  Q 307.65 451.33 308.12 451.56
  L 309.14 452.06
  A 0.42 0.42 0.0 0 1 309.16 452.80
  C 294.71 461.38 279.33 468.04 264.73 476.36
  C 260.58 478.73 239.05 488.58 237.37 494.79"
/>
<path stroke="#021c2a" vector-effect="non-scaling-stroke" d="
  M 229.58 503.08
  Q 221.29 510.15 219.97 520.00
  Q 219.30 525.08 222.28 524.92"
/>
<path stroke="#021c2a" vector-effect="non-scaling-stroke" d="
  M 304.93 520.24
  Q 305.38 521.26 307.51 521.37
  A 0.40 0.39 -72.5 0 1 307.82 521.97
  Q 301.40 532.58 290.46 539.44"
/>
<path stroke="#021c2a" vector-effect="non-scaling-stroke" d="
  M 333.40 499.20
  Q 331.47 498.20 328.56 498.90
  Q 324.97 499.76 324.87 499.77
  C 307.25 502.71 289.54 505.90 271.79 507.98
  C 264.72 508.80 257.90 510.12 250.75 510.59
  Q 250.36 510.61 250.52 511.60"
/>
<path stroke="#021c2a" vector-effect="non-scaling-stroke" d="
  M 539.37 388.93
  Q 538.42 387.48 535.00 388.28
  Q 523.14 391.06 511.14 393.11
  C 507.05 393.80 489.32 396.48 487.51 399.20"
/>
<path stroke="#021c2a" vector-effect="non-scaling-stroke" d="
  M 466.81 404.98
  Q 466.31 404.03 464.55 404.55
  C 428.62 415.38 390.88 432.54 360.00 447.84
  C 346.67 454.45 332.97 460.15 319.06 466.83
  Q 312.27 470.09 303.94 472.89
  Q 303.41 473.07 303.72 472.60
  C 305.76 469.50 310.86 467.53 311.39 464.83"
/>
<path stroke="#7e97a4" vector-effect="non-scaling-stroke" d="
  M 417.78 510.19
  Q 416.66 509.87 413.92 510.45
  C 387.46 516.09 372.06 535.72 370.60 562.19
  C 368.96 592.09 392.33 613.57 421.69 611.18
  Q 435.34 610.07 449.01 608.92
  Q 449.72 608.86 449.02 608.72
  C 445.29 607.92 441.23 607.94 437.89 607.08
  C 426.77 604.21 417.04 600.79 408.33 593.41"
/>
<path stroke="#7c7e80" vector-effect="non-scaling-stroke" d="
  M 408.33 593.41
  C 397.99 584.27 390.95 571.23 393.72 557.01
  C 398.83 530.79 421.34 515.85 447.75 517.93
  Q 459.84 518.88 467.55 528.13
  Q 467.59 528.19 467.65 528.15
  Q 467.77 528.06 467.87 527.95
  Q 468.04 527.75 467.87 527.55
  C 455.94 513.54 435.54 508.62 417.78 510.19"
/>
<path stroke="#021c2a" vector-effect="non-scaling-stroke" d="
  M 408.33 593.41
  C 407.85 593.85 407.60 594.22 406.97 593.74
  C 386.42 578.18 388.15 550.68 404.20 533.05
  C 415.14 521.02 428.47 517.71 444.06 515.99
  A 0.88 0.87 78.7 0 0 444.80 514.87
  C 444.47 513.78 442.64 513.79 441.98 513.62
  Q 430.44 510.66 417.78 510.19"
/>
<path stroke="#7e97a4" vector-effect="non-scaling-stroke" d="
  M 714.23 510.88
  Q 706.31 512.06 698.23 516.48
  C 681.65 525.53 674.31 544.93 674.57 562.80
  C 675.03 595.04 699.74 613.87 731.60 609.26
  Q 741.72 607.79 751.93 609.03
  A 0.14 0.10 -26.0 0 0 752.05 608.82
  Q 736.93 606.22 724.06 600.43
  Q 714.30 596.03 706.51 587.67"
/>
<path stroke="#7c7e80" vector-effect="non-scaling-stroke" d="
  M 706.51 587.67
  Q 697.79 577.28 696.25 565.14
  C 694.77 553.48 700.56 538.56 709.29 530.69
  C 718.29 522.57 727.07 519.40 738.94 517.55"
/>
<path stroke="#7e97a4" vector-effect="non-scaling-stroke" d="
  M 738.94 517.55
  Q 741.22 518.40 744.65 517.90"
/>
<path stroke="#7c7e80" vector-effect="non-scaling-stroke" d="
  M 744.65 517.90
  C 753.73 517.98 760.32 522.28 767.21 527.50
  Q 767.93 528.04 767.34 527.36
  C 754.20 512.09 733.57 507.21 714.23 510.88"
/>
<path stroke="#021c2a" vector-effect="non-scaling-stroke" d="
  M 744.65 517.90
  L 746.45 516.06
  A 0.63 0.62 -52.9 0 0 746.32 515.07
  Q 744.84 514.23 741.99 513.52
  Q 727.50 509.88 714.23 510.88"
/>
<path stroke="#021c2a" vector-effect="non-scaling-stroke" d="
  M 738.94 517.55
  Q 733.13 516.62 726.69 518.93
  C 709.03 525.27 699.32 536.69 695.55 555.04
  C 694.78 558.80 694.54 564.66 695.25 568.00
  Q 697.87 580.16 706.51 587.67"
/>
<path stroke="#7c7e80" vector-effect="non-scaling-stroke" d="
  M 639.88 654.34
  C 669.35 651.72 701.39 646.81 730.23 639.17
  C 742.27 635.99 776.39 625.88 780.32 615.48
  A 0.70 0.70 0.0 0 0 779.36 614.60
  L 777.48 615.52"
/>
<path stroke="#7e97a4" vector-effect="non-scaling-stroke" d="
  M 777.48 615.52
  Q 762.68 620.98 750.69 623.18
  C 739.90 625.16 729.07 627.48 718.34 628.60
  Q 678.01 632.78 645.69 633.64
  C 604.11 634.73 556.56 637.01 521.00 637.22
  Q 455.68 637.62 374.06 634.68
  Q 330.07 633.10 304.81 629.66
  C 277.91 626.01 258.73 622.71 236.94 614.26
  Q 233.85 613.06 231.67 611.52
  Q 231.15 611.15 231.28 611.78
  C 232.75 619.08 254.77 629.04 262.25 631.93
  Q 286.91 641.44 313.68 646.07
  C 339.95 650.62 365.52 654.68 391.21 656.86
  C 471.66 663.68 549.87 663.10 630.69 655.64
  Q 636.32 655.12 639.88 654.34"
/>
<path stroke="#021c2a" vector-effect="non-scaling-stroke" d="
  M 777.48 615.52
  C 777.37 619.37 772.90 621.75 769.94 623.25
  C 741.54 637.67 709.58 643.20 677.42 648.64
  Q 672.46 649.48 658.99 651.14
  Q 649.39 652.33 639.88 654.34"
/>
<path stroke="#021c2a" vector-effect="non-scaling-stroke" d="
  M 575.04 398.94
  Q 572.63 398.50 570.42 399.13
  Q 538.88 408.14 510.57 426.57
  Q 502.37 431.91 495.74 440.24"
/>
<path stroke="#7e97a4" vector-effect="non-scaling-stroke" d="
  M 495.74 440.24
  L 484.98 449.95
  A 0.88 0.88 0.0 0 0 485.61 451.48
  C 488.50 451.34 491.79 450.51 494.48 450.29
  C 536.32 446.74 576.26 442.66 620.00 441.12
  Q 620.53 441.10 620.29 440.63
  Q 617.88 435.88 616.57 430.73
  C 613.59 419.08 609.99 407.18 611.03 394.96
  A 0.77 0.76 -87.9 0 0 610.26 394.13
  Q 592.50 394.27 575.04 398.94"
/>
<path stroke="#7c7e80" vector-effect="non-scaling-stroke" d="
  M 495.74 440.24
  Q 507.70 429.71 514.00 425.75
  Q 542.57 407.78 575.04 398.94"
/>
<path stroke="#021c2a" vector-effect="non-scaling-stroke" d="
  M 635.99 402.88
  Q 634.41 403.64 635.01 406.01
  C 638.80 420.96 645.06 437.52 654.22 450.60
  A 0.71 0.71 0.0 0 1 653.69 451.72
  Q 635.99 453.12 618.12 456.36"
/>
<path stroke="#7e97a4" vector-effect="non-scaling-stroke" d="
  M 618.12 456.36
  C 576.09 460.05 534.07 464.37 492.13 469.30
  Q 480.87 470.62 469.48 471.53
  Q 468.81 471.58 469.25 472.09
  L 475.39 479.11"
/>
<path stroke="#021c2a" vector-effect="non-scaling-stroke" d="
  M 475.39 479.11
  Q 480.55 487.88 489.40 501.09
  Q 493.14 506.67 496.79 514.70
  A 1.33 1.27 -0.1 0 0 497.49 515.37
  L 499.26 516.08"
/>
<path stroke="#7e97a4" vector-effect="non-scaling-stroke" d="
  M 499.26 516.08
  C 499.46 516.93 499.68 517.54 500.69 517.01
  C 534.55 498.93 572.20 488.55 609.72 481.37
  C 647.19 474.20 684.92 469.53 722.96 466.68
  Q 723.48 466.64 723.15 466.24
  Q 719.31 461.49 713.83 453.68
  Q 703.12 438.44 687.57 426.71
  C 670.19 413.59 655.97 404.59 635.89 398.04
  Q 635.38 397.87 635.44 398.41
  L 635.99 402.88"
/>
<path stroke="#7c7e80" vector-effect="non-scaling-stroke" d="
  M 499.26 516.08
  Q 490.09 495.89 475.39 479.11"
/>
<path stroke="#7c7e80" vector-effect="non-scaling-stroke" d="
  M 618.12 456.36
  Q 635.10 455.09 651.78 453.23
  C 654.68 452.90 658.38 453.21 661.68 452.75
  Q 662.60 452.62 661.68 452.44
  Q 655.21 451.17 651.88 444.59
  Q 642.47 425.97 637.48 409.75
  Q 636.49 406.52 635.99 402.88"
/>
</g>
<path fill="#f7f8fa" d="
  M 0.00 0.00
  L 1024.00 0.00
  L 1024.00 1024.00
  L 6.45 1024.00
  Q 7.11 1019.08 6.62 1013.94
  Q 6.57 1013.32 5.97 1013.49
  Q 3.32 1014.21 0.70 1013.57
  Q 0.32 1013.48 0.25 1013.87
  Q 0.19 1014.24 0.00 1014.19
  L 0.00 0.00
  Z
  M 311.39 464.83
  Q 302.88 470.53 296.10 477.13
  A 0.54 0.54 0.0 0 0 296.70 478.00
  C 316.67 468.66 337.14 460.23 356.91 450.54
  Q 389.52 434.55 423.03 420.57
  C 437.25 414.64 452.09 409.86 466.81 404.98
  L 487.51 399.20
  L 539.37 388.93
  L 543.72 388.87
  Q 544.44 388.86 543.74 389.04
  Q 514.02 396.32 485.97 412.99
  C 439.01 440.91 393.47 469.73 338.50 479.26
  C 329.46 480.82 316.09 483.50 304.06 485.73
  C 283.28 489.59 265.52 496.14 245.10 504.22
  C 241.81 505.52 240.43 507.45 239.19 510.54
  Q 238.99 511.04 239.52 511.14
  Q 244.94 512.23 250.52 511.60
  Q 292.13 507.68 333.40 499.20
  Q 345.00 497.82 356.70 495.32
  A 0.29 0.28 -75.4 0 1 356.97 495.79
  C 350.86 502.82 345.27 511.30 339.52 517.29
  C 327.87 529.42 297.55 556.74 279.47 543.56
  A 0.47 0.47 0.0 0 1 279.70 542.72
  Q 285.99 542.10 290.46 539.44
  C 299.68 536.30 304.03 529.00 311.23 519.71
  Q 311.63 519.18 310.98 519.29
  L 304.93 520.24
  Q 269.72 525.53 233.99 527.15
  C 230.23 527.32 225.02 528.07 222.28 524.92
  C 219.28 519.12 225.58 508.61 229.58 503.08
  L 237.37 494.79
  Q 242.95 489.72 250.33 485.60
  Q 284.02 466.82 313.33 451.98
  Q 315.75 450.76 318.53 448.74
  A 0.67 0.67 0.0 0 0 317.95 447.55
  L 301.86 452.26
  Q 295.70 454.54 289.22 457.15
  C 263.63 467.47 234.80 476.41 212.32 495.02
  C 209.78 497.13 209.05 498.81 209.04 502.00
  C 209.01 515.69 206.81 526.91 216.13 535.16
  Q 216.47 535.46 216.35 535.90
  C 214.19 543.61 204.26 574.49 207.99 580.48
  Q 216.82 594.62 232.99 595.08
  Q 273.28 596.22 335.71 595.95
  L 342.82 596.08
  Q 343.32 596.09 343.44 595.60
  C 348.96 573.83 351.59 552.95 362.33 531.64
  Q 370.23 517.99 382.28 507.71
  Q 405.90 489.06 435.26 491.51
  C 490.12 496.60 502.51 550.76 510.07 594.70
  A 1.00 0.99 85.2 0 0 511.05 595.53
  L 632.25 595.93
  L 649.81 595.94
  Q 650.33 595.94 650.42 595.42
  C 654.27 572.30 655.10 546.66 668.27 525.74
  Q 680.97 505.58 704.56 496.95
  C 720.79 490.12 741.57 491.82 757.18 498.41
  C 777.30 506.91 784.93 525.53 788.87 545.47
  Q 790.97 556.13 790.58 567.44
  A 0.31 0.31 0.0 0 0 791.19 567.52
  L 795.59 549.62
  C 799.05 537.04 800.59 522.93 798.10 510.16
  C 794.69 492.68 783.62 475.41 771.46 461.99
  C 748.27 434.87 713.38 415.67 680.18 403.99
  C 667.33 399.47 651.10 395.18 636.66 390.74
  Q 636.18 390.60 636.01 390.13
  L 635.67 389.22
  C 637.07 381.60 643.27 381.46 649.06 379.85
  Q 650.12 379.56 649.04 379.32
  L 640.14 377.42
  Q 623.08 373.60 605.25 373.03
  C 561.40 371.61 516.25 376.56 475.00 389.98
  Q 444.84 399.80 409.61 413.64
  C 383.13 424.05 357.36 437.17 332.69 451.31
  C 325.66 455.34 318.45 460.31 311.39 464.83
  Z
  M 417.78 510.19
  Q 416.66 509.87 413.92 510.45
  C 387.46 516.09 372.06 535.72 370.60 562.19
  C 368.96 592.09 392.33 613.57 421.69 611.18
  Q 435.34 610.07 449.01 608.92
  Q 449.72 608.86 449.02 608.72
  C 445.29 607.92 441.23 607.94 437.89 607.08
  C 426.77 604.21 417.04 600.79 408.33 593.41
  C 397.99 584.27 390.95 571.23 393.72 557.01
  C 398.83 530.79 421.34 515.85 447.75 517.93
  Q 459.84 518.88 467.55 528.13
  Q 467.59 528.19 467.65 528.15
  Q 467.77 528.06 467.87 527.95
  Q 468.04 527.75 467.87 527.55
  C 455.94 513.54 435.54 508.62 417.78 510.19
  Z
  M 714.23 510.88
  Q 706.31 512.06 698.23 516.48
  C 681.65 525.53 674.31 544.93 674.57 562.80
  C 675.03 595.04 699.74 613.87 731.60 609.26
  Q 741.72 607.79 751.93 609.03
  A 0.14 0.10 -26.0 0 0 752.05 608.82
  Q 736.93 606.22 724.06 600.43
  Q 714.30 596.03 706.51 587.67
  Q 697.79 577.28 696.25 565.14
  C 694.77 553.48 700.56 538.56 709.29 530.69
  C 718.29 522.57 727.07 519.40 738.94 517.55
  Q 741.22 518.40 744.65 517.90
  C 753.73 517.98 760.32 522.28 767.21 527.50
  Q 767.93 528.04 767.34 527.36
  C 754.20 512.09 733.57 507.21 714.23 510.88
  Z
  M 639.88 654.34
  C 669.35 651.72 701.39 646.81 730.23 639.17
  C 742.27 635.99 776.39 625.88 780.32 615.48
  A 0.70 0.70 0.0 0 0 779.36 614.60
  L 777.48 615.52
  Q 762.68 620.98 750.69 623.18
  C 739.90 625.16 729.07 627.48 718.34 628.60
  Q 678.01 632.78 645.69 633.64
  C 604.11 634.73 556.56 637.01 521.00 637.22
  Q 455.68 637.62 374.06 634.68
  Q 330.07 633.10 304.81 629.66
  C 277.91 626.01 258.73 622.71 236.94 614.26
  Q 233.85 613.06 231.67 611.52
  Q 231.15 611.15 231.28 611.78
  C 232.75 619.08 254.77 629.04 262.25 631.93
  Q 286.91 641.44 313.68 646.07
  C 339.95 650.62 365.52 654.68 391.21 656.86
  C 471.66 663.68 549.87 663.10 630.69 655.64
  Q 636.32 655.12 639.88 654.34
  Z"
/>
<path fill="#04354e" d="
  M 640.14 377.42
  Q 639.22 378.46 642.55 379.37
  Q 643.42 379.61 642.57 379.89
  Q 634.82 382.49 635.67 389.22
  L 636.01 390.13
  Q 636.18 390.60 636.66 390.74
  C 651.10 395.18 667.33 399.47 680.18 403.99
  C 713.38 415.67 748.27 434.87 771.46 461.99
  Q 771.06 461.93 770.82 462.32
  Q 770.52 462.80 770.90 463.23
  Q 783.64 477.72 789.42 489.82
  C 794.90 501.30 799.46 516.10 797.89 528.43
  Q 796.57 538.87 795.59 549.62
  L 791.19 567.52
  A 0.31 0.31 0.0 0 1 790.58 567.44
  Q 790.97 556.13 788.87 545.47
  C 784.93 525.53 777.30 506.91 757.18 498.41
  C 741.57 491.82 720.79 490.12 704.56 496.95
  Q 704.42 496.72 704.56 496.52
  A 0.41 0.41 0.0 0 0 704.09 495.90
  Q 679.99 504.56 667.00 526.03
  C 666.44 526.95 662.87 534.47 662.82 534.48
  Q 662.44 534.58 662.29 534.94
  C 654.12 554.24 652.63 573.48 649.78 593.46
  Q 649.51 595.33 647.63 595.29
  C 646.19 595.26 632.05 594.35 632.25 595.93
  L 511.05 595.53
  A 1.00 0.99 85.2 0 1 510.07 594.70
  C 502.51 550.76 490.12 496.60 435.26 491.51
  Q 435.28 491.31 435.19 491.13
  Q 434.98 490.66 434.47 490.61
  C 422.67 489.55 414.14 491.07 404.92 493.88
  Q 391.72 497.91 382.28 507.71
  Q 370.23 517.99 362.33 531.64
  Q 359.21 534.53 357.72 538.28
  C 350.84 555.64 347.05 575.83 342.60 594.54
  Q 342.48 595.06 341.95 595.04
  Q 338.54 594.90 335.71 595.95
  Q 273.28 596.22 232.99 595.08
  Q 216.82 594.62 207.99 580.48
  C 204.26 574.49 214.19 543.61 216.35 535.90
  Q 216.47 535.46 216.13 535.16
  C 206.81 526.91 209.01 515.69 209.04 502.00
  C 209.05 498.81 209.78 497.13 212.32 495.02
  C 234.80 476.41 263.63 467.47 289.22 457.15
  Q 295.70 454.54 301.86 452.26
  Q 304.26 453.18 307.20 451.58
  Q 307.65 451.33 308.12 451.56
  L 309.14 452.06
  A 0.42 0.42 0.0 0 1 309.16 452.80
  C 294.71 461.38 279.33 468.04 264.73 476.36
  C 260.58 478.73 239.05 488.58 237.37 494.79
  L 229.58 503.08
  Q 221.29 510.15 219.97 520.00
  Q 219.30 525.08 222.28 524.92
  C 225.02 528.07 230.23 527.32 233.99 527.15
  Q 269.72 525.53 304.93 520.24
  Q 305.38 521.26 307.51 521.37
  A 0.40 0.39 -72.5 0 1 307.82 521.97
  Q 301.40 532.58 290.46 539.44
  Q 285.99 542.10 279.70 542.72
  A 0.47 0.47 0.0 0 0 279.47 543.56
  C 297.55 556.74 327.87 529.42 339.52 517.29
  C 345.27 511.30 350.86 502.82 356.97 495.79
  A 0.29 0.28 -75.4 0 0 356.70 495.32
  Q 345.00 497.82 333.40 499.20
  Q 331.47 498.20 328.56 498.90
  Q 324.97 499.76 324.87 499.77
  C 307.25 502.71 289.54 505.90 271.79 507.98
  C 264.72 508.80 257.90 510.12 250.75 510.59
  Q 250.36 510.61 250.52 511.60
  Q 244.94 512.23 239.52 511.14
  Q 238.99 511.04 239.19 510.54
  C 240.43 507.45 241.81 505.52 245.10 504.22
  C 265.52 496.14 283.28 489.59 304.06 485.73
  C 316.09 483.50 329.46 480.82 338.50 479.26
  C 393.47 469.73 439.01 440.91 485.97 412.99
  Q 514.02 396.32 543.74 389.04
  Q 544.44 388.86 543.72 388.87
  L 539.37 388.93
  Q 538.42 387.48 535.00 388.28
  Q 523.14 391.06 511.14 393.11
  C 507.05 393.80 489.32 396.48 487.51 399.20
  L 466.81 404.98
  Q 466.31 404.03 464.55 404.55
  C 428.62 415.38 390.88 432.54 360.00 447.84
  C 346.67 454.45 332.97 460.15 319.06 466.83
  Q 312.27 470.09 303.94 472.89
  Q 303.41 473.07 303.72 472.60
  C 305.76 469.50 310.86 467.53 311.39 464.83
  C 318.45 460.31 325.66 455.34 332.69 451.31
  C 357.36 437.17 383.13 424.05 409.61 413.64
  Q 444.84 399.80 475.00 389.98
  C 516.25 376.56 561.40 371.61 605.25 373.03
  Q 623.08 373.60 640.14 377.42
  Z
  M 575.04 398.94
  Q 572.63 398.50 570.42 399.13
  Q 538.88 408.14 510.57 426.57
  Q 502.37 431.91 495.74 440.24
  L 484.98 449.95
  A 0.88 0.88 0.0 0 0 485.61 451.48
  C 488.50 451.34 491.79 450.51 494.48 450.29
  C 536.32 446.74 576.26 442.66 620.00 441.12
  Q 620.53 441.10 620.29 440.63
  Q 617.88 435.88 616.57 430.73
  C 613.59 419.08 609.99 407.18 611.03 394.96
  A 0.77 0.76 -87.9 0 0 610.26 394.13
  Q 592.50 394.27 575.04 398.94
  Z
  M 635.99 402.88
  Q 634.41 403.64 635.01 406.01
  C 638.80 420.96 645.06 437.52 654.22 450.60
  A 0.71 0.71 0.0 0 1 653.69 451.72
  Q 635.99 453.12 618.12 456.36
  C 576.09 460.05 534.07 464.37 492.13 469.30
  Q 480.87 470.62 469.48 471.53
  Q 468.81 471.58 469.25 472.09
  L 475.39 479.11
  Q 480.55 487.88 489.40 501.09
  Q 493.14 506.67 496.79 514.70
  A 1.33 1.27 -0.1 0 0 497.49 515.37
  L 499.26 516.08
  C 499.46 516.93 499.68 517.54 500.69 517.01
  C 534.55 498.93 572.20 488.55 609.72 481.37
  C 647.19 474.20 684.92 469.53 722.96 466.68
  Q 723.48 466.64 723.15 466.24
  Q 719.31 461.49 713.83 453.68
  Q 703.12 438.44 687.57 426.71
  C 670.19 413.59 655.97 404.59 635.89 398.04
  Q 635.38 397.87 635.44 398.41
  L 635.99 402.88
  Z"
/>
<path fill="#000305" d="
  M 640.14 377.42
  L 649.04 379.32
  Q 650.12 379.56 649.06 379.85
  C 643.27 381.46 637.07 381.60 635.67 389.22
  Q 634.82 382.49 642.57 379.89
  Q 643.42 379.61 642.55 379.37
  Q 639.22 378.46 640.14 377.42
  Z"
/>
<path fill="#000305" d="
  M 539.37 388.93
  L 487.51 399.20
  C 489.32 396.48 507.05 393.80 511.14 393.11
  Q 523.14 391.06 535.00 388.28
  Q 538.42 387.48 539.37 388.93
  Z"
/>
<path fill="#f7f8fa" d="
  M 495.74 440.24
  Q 507.70 429.71 514.00 425.75
  Q 542.57 407.78 575.04 398.94
  Q 592.50 394.27 610.26 394.13
  A 0.77 0.76 -87.9 0 1 611.03 394.96
  C 609.99 407.18 613.59 419.08 616.57 430.73
  Q 617.88 435.88 620.29 440.63
  Q 620.53 441.10 620.00 441.12
  C 576.26 442.66 536.32 446.74 494.48 450.29
  C 491.79 450.51 488.50 451.34 485.61 451.48
  A 0.88 0.88 0.0 0 1 484.98 449.95
  L 495.74 440.24
  Z"
/>
<path fill="#f7f8fa" d="
  M 499.26 516.08
  Q 490.09 495.89 475.39 479.11
  L 469.25 472.09
  Q 468.81 471.58 469.48 471.53
  Q 480.87 470.62 492.13 469.30
  C 534.07 464.37 576.09 460.05 618.12 456.36
  Q 635.10 455.09 651.78 453.23
  C 654.68 452.90 658.38 453.21 661.68 452.75
  Q 662.60 452.62 661.68 452.44
  Q 655.21 451.17 651.88 444.59
  Q 642.47 425.97 637.48 409.75
  Q 636.49 406.52 635.99 402.88
  L 635.44 398.41
  Q 635.38 397.87 635.89 398.04
  C 655.97 404.59 670.19 413.59 687.57 426.71
  Q 703.12 438.44 713.83 453.68
  Q 719.31 461.49 723.15 466.24
  Q 723.48 466.64 722.96 466.68
  C 684.92 469.53 647.19 474.20 609.72 481.37
  C 572.20 488.55 534.55 498.93 500.69 517.01
  C 499.68 517.54 499.46 516.93 499.26 516.08
  Z"
/>
<path fill="#000305" d="
  M 575.04 398.94
  Q 542.57 407.78 514.00 425.75
  Q 507.70 429.71 495.74 440.24
  Q 502.37 431.91 510.57 426.57
  Q 538.88 408.14 570.42 399.13
  Q 572.63 398.50 575.04 398.94
  Z"
/>
<path fill="#000305" d="
  M 635.99 402.88
  Q 636.49 406.52 637.48 409.75
  Q 642.47 425.97 651.88 444.59
  Q 655.21 451.17 661.68 452.44
  Q 662.60 452.62 661.68 452.75
  C 658.38 453.21 654.68 452.90 651.78 453.23
  Q 635.10 455.09 618.12 456.36
  Q 635.99 453.12 653.69 451.72
  A 0.71 0.71 0.0 0 0 654.22 450.60
  C 645.06 437.52 638.80 420.96 635.01 406.01
  Q 634.41 403.64 635.99 402.88
  Z"
/>
<path fill="#000305" d="
  M 466.81 404.98
  C 452.09 409.86 437.25 414.64 423.03 420.57
  Q 389.52 434.55 356.91 450.54
  C 337.14 460.23 316.67 468.66 296.70 478.00
  A 0.54 0.54 0.0 0 1 296.10 477.13
  Q 302.88 470.53 311.39 464.83
  C 310.86 467.53 305.76 469.50 303.72 472.60
  Q 303.41 473.07 303.94 472.89
  Q 312.27 470.09 319.06 466.83
  C 332.97 460.15 346.67 454.45 360.00 447.84
  C 390.88 432.54 428.62 415.38 464.55 404.55
  Q 466.31 404.03 466.81 404.98
  Z"
/>
<path fill="#000305" d="
  M 237.37 494.79
  C 239.05 488.58 260.58 478.73 264.73 476.36
  C 279.33 468.04 294.71 461.38 309.16 452.80
  A 0.42 0.42 0.0 0 0 309.14 452.06
  L 308.12 451.56
  Q 307.65 451.33 307.20 451.58
  Q 304.26 453.18 301.86 452.26
  L 317.95 447.55
  A 0.67 0.67 0.0 0 1 318.53 448.74
  Q 315.75 450.76 313.33 451.98
  Q 284.02 466.82 250.33 485.60
  Q 242.95 489.72 237.37 494.79
  Z"
/>
<path fill="#000305" d="
  M 771.46 461.99
  C 783.62 475.41 794.69 492.68 798.10 510.16
  C 800.59 522.93 799.05 537.04 795.59 549.62
  Q 796.57 538.87 797.89 528.43
  C 799.46 516.10 794.90 501.30 789.42 489.82
  Q 783.64 477.72 770.90 463.23
  Q 770.52 462.80 770.82 462.32
  Q 771.06 461.93 771.46 461.99
  Z"
/>
<path fill="#000305" d="
  M 475.39 479.11
  Q 490.09 495.89 499.26 516.08
  L 497.49 515.37
  A 1.33 1.27 -0.1 0 1 496.79 514.70
  Q 493.14 506.67 489.40 501.09
  Q 480.55 487.88 475.39 479.11
  Z"
/>
<path fill="#000305" d="
  M 435.26 491.51
  Q 405.90 489.06 382.28 507.71
  Q 391.72 497.91 404.92 493.88
  C 414.14 491.07 422.67 489.55 434.47 490.61
  Q 434.98 490.66 435.19 491.13
  Q 435.28 491.31 435.26 491.51
  Z"
/>
<path fill="#000305" d="
  M 704.56 496.95
  Q 680.97 505.58 668.27 525.74
  C 655.10 546.66 654.27 572.30 650.42 595.42
  Q 650.33 595.94 649.81 595.94
  L 632.25 595.93
  C 632.05 594.35 646.19 595.26 647.63 595.29
  Q 649.51 595.33 649.78 593.46
  C 652.63 573.48 654.12 554.24 662.29 534.94
  Q 662.44 534.58 662.82 534.48
  C 662.87 534.47 666.44 526.95 667.00 526.03
  Q 679.99 504.56 704.09 495.90
  A 0.41 0.41 0.0 0 1 704.56 496.52
  Q 704.42 496.72 704.56 496.95
  Z"
/>
<path fill="#000305" d="
  M 333.40 499.20
  Q 292.13 507.68 250.52 511.60
  Q 250.36 510.61 250.75 510.59
  C 257.90 510.12 264.72 508.80 271.79 507.98
  C 289.54 505.90 307.25 502.71 324.87 499.77
  Q 324.97 499.76 328.56 498.90
  Q 331.47 498.20 333.40 499.20
  Z"
/>
<path fill="#000305" d="
  M 229.58 503.08
  C 225.58 508.61 219.28 519.12 222.28 524.92
  Q 219.30 525.08 219.97 520.00
  Q 221.29 510.15 229.58 503.08
  Z"
/>
<path fill="#000305" d="
  M 408.33 593.41
  C 407.85 593.85 407.60 594.22 406.97 593.74
  C 386.42 578.18 388.15 550.68 404.20 533.05
  C 415.14 521.02 428.47 517.71 444.06 515.99
  A 0.88 0.87 78.7 0 0 444.80 514.87
  C 444.47 513.78 442.64 513.79 441.98 513.62
  Q 430.44 510.66 417.78 510.19
  C 435.54 508.62 455.94 513.54 467.87 527.55
  Q 468.04 527.75 467.87 527.95
  Q 467.77 528.06 467.65 528.15
  Q 467.59 528.19 467.55 528.13
  Q 459.84 518.88 447.75 517.93
  C 421.34 515.85 398.83 530.79 393.72 557.01
  C 390.95 571.23 397.99 584.27 408.33 593.41
  Z"
/>
<path fill="#000305" d="
  M 744.65 517.90
  L 746.45 516.06
  A 0.63 0.62 -52.9 0 0 746.32 515.07
  Q 744.84 514.23 741.99 513.52
  Q 727.50 509.88 714.23 510.88
  C 733.57 507.21 754.20 512.09 767.34 527.36
  Q 767.93 528.04 767.21 527.50
  C 760.32 522.28 753.73 517.98 744.65 517.90
  Z"
/>
<path fill="#04354e" d="
  M 417.78 510.19
  Q 430.44 510.66 441.98 513.62
  C 442.64 513.79 444.47 513.78 444.80 514.87
  A 0.88 0.87 78.7 0 1 444.06 515.99
  C 428.47 517.71 415.14 521.02 404.20 533.05
  C 388.15 550.68 386.42 578.18 406.97 593.74
  C 407.60 594.22 407.85 593.85 408.33 593.41
  C 417.04 600.79 426.77 604.21 437.89 607.08
  C 441.23 607.94 445.29 607.92 449.02 608.72
  Q 449.72 608.86 449.01 608.92
  Q 435.34 610.07 421.69 611.18
  C 392.33 613.57 368.96 592.09 370.60 562.19
  C 372.06 535.72 387.46 516.09 413.92 510.45
  Q 416.66 509.87 417.78 510.19
  Z"
/>
<path fill="#04354e" d="
  M 714.23 510.88
  Q 727.50 509.88 741.99 513.52
  Q 744.84 514.23 746.32 515.07
  A 0.63 0.62 -52.9 0 1 746.45 516.06
  L 744.65 517.90
  Q 741.22 518.40 738.94 517.55
  Q 733.13 516.62 726.69 518.93
  C 709.03 525.27 699.32 536.69 695.55 555.04
  C 694.78 558.80 694.54 564.66 695.25 568.00
  Q 697.87 580.16 706.51 587.67
  Q 714.30 596.03 724.06 600.43
  Q 736.93 606.22 752.05 608.82
  A 0.14 0.10 -26.0 0 1 751.93 609.03
  Q 741.72 607.79 731.60 609.26
  C 699.74 613.87 675.03 595.04 674.57 562.80
  C 674.31 544.93 681.65 525.53 698.23 516.48
  Q 706.31 512.06 714.23 510.88
  Z"
/>
<path fill="#000305" d="
  M 738.94 517.55
  C 727.07 519.40 718.29 522.57 709.29 530.69
  C 700.56 538.56 694.77 553.48 696.25 565.14
  Q 697.79 577.28 706.51 587.67
  Q 697.87 580.16 695.25 568.00
  C 694.54 564.66 694.78 558.80 695.55 555.04
  C 699.32 536.69 709.03 525.27 726.69 518.93
  Q 733.13 516.62 738.94 517.55
  Z"
/>
<path fill="#000305" d="
  M 290.46 539.44
  Q 301.40 532.58 307.82 521.97
  A 0.40 0.39 -72.5 0 0 307.51 521.37
  Q 305.38 521.26 304.93 520.24
  L 310.98 519.29
  Q 311.63 519.18 311.23 519.71
  C 304.03 529.00 299.68 536.30 290.46 539.44
  Z"
/>
<path fill="#000305" d="
  M 362.33 531.64
  C 351.59 552.95 348.96 573.83 343.44 595.60
  Q 343.32 596.09 342.82 596.08
  L 335.71 595.95
  Q 338.54 594.90 341.95 595.04
  Q 342.48 595.06 342.60 594.54
  C 347.05 575.83 350.84 555.64 357.72 538.28
  Q 359.21 534.53 362.33 531.64
  Z"
/>
<path fill="#04354e" d="
  M 777.48 615.52
  C 777.37 619.37 772.90 621.75 769.94 623.25
  C 741.54 637.67 709.58 643.20 677.42 648.64
  Q 672.46 649.48 658.99 651.14
  Q 649.39 652.33 639.88 654.34
  Q 636.32 655.12 630.69 655.64
  C 549.87 663.10 471.66 663.68 391.21 656.86
  C 365.52 654.68 339.95 650.62 313.68 646.07
  Q 286.91 641.44 262.25 631.93
  C 254.77 629.04 232.75 619.08 231.28 611.78
  Q 231.15 611.15 231.67 611.52
  Q 233.85 613.06 236.94 614.26
  C 258.73 622.71 277.91 626.01 304.81 629.66
  Q 330.07 633.10 374.06 634.68
  Q 455.68 637.62 521.00 637.22
  C 556.56 637.01 604.11 634.73 645.69 633.64
  Q 678.01 632.78 718.34 628.60
  C 729.07 627.48 739.90 625.16 750.69 623.18
  Q 762.68 620.98 777.48 615.52
  Z"
/>
<path fill="#000305" d="
  M 639.88 654.34
  Q 649.39 652.33 658.99 651.14
  Q 672.46 649.48 677.42 648.64
  C 709.58 643.20 741.54 637.67 769.94 623.25
  C 772.90 621.75 777.37 619.37 777.48 615.52
  L 779.36 614.60
  A 0.70 0.70 0.0 0 1 780.32 615.48
  C 776.39 625.88 742.27 635.99 730.23 639.17
  C 701.39 646.81 669.35 651.72 639.88 654.34
  Z"
/>
<path fill="#04354e" d="
  M 6.45 1024.00
  L 0.00 1024.00
  L 0.00 1014.19
  Q 0.19 1014.24 0.25 1013.87
  Q 0.32 1013.48 0.70 1013.57
  Q 3.32 1014.21 5.97 1013.49
  Q 6.57 1013.32 6.62 1013.94
  Q 7.11 1019.08 6.45 1024.00
  Z"
/>
</svg>
